<svg width="24" height="24" viewBox="0 0 24 24" fill="none" xmlns="http://www.w3.org/2000/svg">
<g clip-path="url(#clip0_55_16)">
<path d="M7.07795 23.55C6.60495 23.234 6.18495 22.847 5.83395 22.4C5.45095 21.937 5.09595 21.45 4.76995 20.946C4.00395 19.826 3.40495 18.601 2.98995 17.31C2.48995 15.808 2.24695 14.37 2.24695 12.963C2.24695 11.393 2.58695 10.023 3.24895 8.87302C3.73895 7.97302 4.46895 7.22002 5.34895 6.69102C6.19895 6.16102 7.18895 5.87102 8.18895 5.85102C8.53895 5.85102 8.91895 5.90102 9.31895 6.00102C9.60895 6.08102 9.95895 6.21102 10.3889 6.37102C10.9389 6.58102 11.2389 6.71102 11.3389 6.74102C11.6589 6.86102 11.9289 6.91102 12.1389 6.91102C12.2989 6.91102 12.5289 6.86102 12.7839 6.78102C12.9289 6.73102 13.2039 6.64102 13.5939 6.47102C13.9799 6.33102 14.2859 6.21102 14.5289 6.12102C14.8989 6.01102 15.2569 5.91102 15.5789 5.86102C15.9689 5.80102 16.3559 5.78102 16.7269 5.81102C17.4369 5.86102 18.0869 6.01102 18.6669 6.23102C19.6869 6.64102 20.5099 7.28102 21.1239 8.19102C20.8639 8.35102 20.6239 8.53702 20.3989 8.74102C19.9119 9.17102 19.4989 9.68102 19.1689 10.246C18.7389 11.016 18.5189 11.886 18.5249 12.766C18.5399 13.849 18.8149 14.801 19.3649 15.626C19.7519 16.226 20.2689 16.74 20.8989 17.162C21.2089 17.372 21.4809 17.517 21.7389 17.612C21.6189 17.987 21.4869 18.352 21.3339 18.712C20.9869 19.519 20.5739 20.292 20.0839 21.022C19.6519 21.652 19.3119 22.122 19.0539 22.432C18.6519 22.912 18.2639 23.272 17.8739 23.529C17.4439 23.814 16.9389 23.965 16.4219 23.965C16.0719 23.98 15.7219 23.935 15.3879 23.838C15.0979 23.743 14.8119 23.636 14.5319 23.515C14.2389 23.381 13.9359 23.267 13.6269 23.175C13.2469 23.075 12.8569 23.027 12.4629 23.028C12.0629 23.028 11.6729 23.078 11.3029 23.173C10.9929 23.261 10.6929 23.369 10.3959 23.498C9.97595 23.673 9.70095 23.788 9.54095 23.838C9.21695 23.934 8.88495 23.992 8.55095 24.013C8.03095 24.013 7.54695 23.863 7.06495 23.563L7.07795 23.55ZM13.9319 5.09002C13.2519 5.43002 12.6059 5.57402 11.9589 5.52602C11.8589 4.88002 11.9589 4.21602 12.2289 3.48902C12.4689 2.86902 12.7889 2.30902 13.2289 1.80902C13.6889 1.28902 14.2389 0.859023 14.8589 0.549023C15.5189 0.209023 16.1489 0.0290234 16.7489 -0.000976562C16.8289 0.679023 16.7489 1.34902 16.4989 2.06902C16.2709 2.70902 15.9309 3.29902 15.4989 3.82902C15.0639 4.34902 14.5239 4.77902 13.9129 5.08902L13.9319 5.09002Z" fill="white"/>
</g>
<defs>
<clipPath id="clip0_55_16">
<rect width="24" height="24" fill="white"/>
</clipPath>
</defs>
</svg>
