<svg width="24" height="24" viewBox="0 0 24 24" fill="none" xmlns="http://www.w3.org/2000/svg">
<g clip-path="url(#clip0_55_20)">
<path d="M23.499 6.20305C23.3599 5.70456 23.0945 5.25038 22.7286 4.88442C22.3626 4.51847 21.9084 4.25313 21.41 4.11405C19.54 3.61305 12.01 3.61305 12.01 3.61305C12.01 3.61305 4.50095 3.60305 2.61095 4.11405C2.11252 4.25337 1.65847 4.51893 1.29269 4.88505C0.926916 5.25118 0.661791 5.70549 0.522951 6.20405C0.168161 8.11887 -0.0069334 10.0627 -4.87813e-05 12.0101C-0.00562731 13.9504 0.169462 15.8871 0.522951 17.7951C0.661941 18.2934 0.927132 18.7475 1.2929 19.1135C1.65867 19.4794 2.11264 19.7448 2.61095 19.8841C4.47995 20.3861 12.011 20.3861 12.011 20.3861C12.011 20.3861 19.519 20.3861 21.41 19.8841C21.9086 19.7449 22.3628 19.4794 22.7288 19.1133C23.0947 18.7471 23.36 18.2927 23.499 17.7941C23.8447 15.8857 24.0121 13.9494 23.999 12.0101C24.0135 10.0627 23.8462 8.11825 23.499 6.20205V6.20305ZM9.60795 15.6031V8.40705L15.874 12.0111L9.60795 15.6031Z" fill="white"/>
</g>
<defs>
<clipPath id="clip0_55_20">
<rect width="24" height="24" fill="white"/>
</clipPath>
</defs>
</svg>
